<svg xmlns="http://www.w3.org/2000/svg" xmlns:xlink="http://www.w3.org/1999/xlink" width="500" zoomAndPan="magnify" viewBox="0 0 375 374.999991" height="500" preserveAspectRatio="xMidYMid meet" version="1.0"><defs><g/><clipPath id="61cf101543"><rect x="0" width="248" y="0" height="109"/></clipPath></defs><g transform="matrix(1, 0, 0, 1, 61, 133)"><g clip-path="url(#61cf101543)"><g fill="#000000" fill-opacity="1"><g transform="translate(1.708639, 78.058335)"><g><path d="M 6.6875 -69.46875 C 8.488281 -71.269531 10.632812 -72.171875 13.125 -72.171875 C 15.625 -72.171875 17.769531 -71.269531 19.5625 -69.46875 C 21.363281 -67.675781 22.265625 -65.53125 22.265625 -63.03125 C 22.265625 -60.539062 21.363281 -58.394531 19.5625 -56.59375 C 17.769531 -54.800781 15.625 -53.90625 13.125 -53.90625 C 10.632812 -53.90625 8.488281 -54.800781 6.6875 -56.59375 C 4.894531 -58.394531 4 -60.539062 4 -63.03125 C 4 -65.53125 4.894531 -67.675781 6.6875 -69.46875 Z M 5.21875 -44.609375 L 5.21875 0 L 20.609375 0 L 20.609375 -44.609375 Z M 5.21875 -44.609375 "/></g></g></g><g fill="#000000" fill-opacity="1"><g transform="translate(19.787963, 78.058335)"><g><path d="M 32.609375 0 L 22.171875 0 L -1.734375 -44.609375 L 16 -44.609375 L 26.875 -20.515625 L 37.5625 -44.609375 L 48.171875 -44.609375 L 58.875 -20.515625 L 69.734375 -44.609375 L 87.46875 -44.609375 L 63.5625 0 L 53.125 0 L 42.875 -23.046875 Z M 32.609375 0 "/></g></g></g><g fill="#000000" fill-opacity="1"><g transform="translate(97.328214, 78.058335)"><g><path d="M 5.21875 0 L 5.21875 -44.609375 L 20.609375 -44.609375 L 20.609375 -38.171875 L 20.78125 -38.171875 C 20.894531 -38.398438 21.082031 -38.6875 21.34375 -39.03125 C 21.601562 -39.382812 22.164062 -39.992188 23.03125 -40.859375 C 23.90625 -41.734375 24.832031 -42.519531 25.8125 -43.21875 C 26.800781 -43.914062 28.078125 -44.535156 29.640625 -45.078125 C 31.210938 -45.628906 32.8125 -45.90625 34.4375 -45.90625 C 36.113281 -45.90625 37.765625 -45.671875 39.390625 -45.203125 C 41.015625 -44.742188 42.203125 -44.285156 42.953125 -43.828125 L 44.171875 -43.125 L 37.734375 -30.078125 C 35.828125 -31.703125 33.160156 -32.515625 29.734375 -32.515625 C 27.878906 -32.515625 26.285156 -32.109375 24.953125 -31.296875 C 23.617188 -30.484375 22.675781 -29.5 22.125 -28.34375 C 21.570312 -27.1875 21.179688 -26.203125 20.953125 -25.390625 C 20.722656 -24.578125 20.609375 -23.941406 20.609375 -23.484375 L 20.609375 0 Z M 5.21875 0 "/></g></g></g><g fill="#000000" fill-opacity="1"><g transform="translate(132.446045, 78.058335)"><g><path d="M 6.6875 -69.46875 C 8.488281 -71.269531 10.632812 -72.171875 13.125 -72.171875 C 15.625 -72.171875 17.769531 -71.269531 19.5625 -69.46875 C 21.363281 -67.675781 22.265625 -65.53125 22.265625 -63.03125 C 22.265625 -60.539062 21.363281 -58.394531 19.5625 -56.59375 C 17.769531 -54.800781 15.625 -53.90625 13.125 -53.90625 C 10.632812 -53.90625 8.488281 -54.800781 6.6875 -56.59375 C 4.894531 -58.394531 4 -60.539062 4 -63.03125 C 4 -65.53125 4.894531 -67.675781 6.6875 -69.46875 Z M 5.21875 -44.609375 L 5.21875 0 L 20.609375 0 L 20.609375 -44.609375 Z M 5.21875 -44.609375 "/></g></g></g><g fill="#000000" fill-opacity="1"><g transform="translate(150.525369, 78.058335)"><g><path d="M 7.828125 -44.609375 L 7.828125 -61.21875 L 23.21875 -61.21875 L 23.21875 -44.609375 L 32.609375 -44.609375 L 32.609375 -32.875 L 23.21875 -32.875 L 23.21875 -18.6875 C 23.21875 -14.570312 24.375 -12.515625 26.6875 -12.515625 C 27.269531 -12.515625 27.878906 -12.628906 28.515625 -12.859375 C 29.160156 -13.097656 29.65625 -13.332031 30 -13.5625 L 30.515625 -13.90625 L 34.34375 -1.484375 C 31.039062 0.367188 27.273438 1.296875 23.046875 1.296875 C 20.140625 1.296875 17.644531 0.789062 15.5625 -0.21875 C 13.476562 -1.226562 11.898438 -2.585938 10.828125 -4.296875 C 9.753906 -6.015625 8.984375 -7.8125 8.515625 -9.6875 C 8.054688 -11.570312 7.828125 -13.585938 7.828125 -15.734375 L 7.828125 -32.875 L 1.390625 -32.875 L 1.390625 -44.609375 Z M 7.828125 -44.609375 "/></g></g></g><g fill="#000000" fill-opacity="1"><g transform="translate(176.689278, 78.058335)"><g><path d="M 50.34375 -20.171875 L 18 -20.171875 C 18 -17.046875 19.015625 -14.726562 21.046875 -13.21875 C 23.078125 -11.707031 25.28125 -10.953125 27.65625 -10.953125 C 30.144531 -10.953125 32.113281 -11.285156 33.5625 -11.953125 C 35.007812 -12.617188 36.660156 -13.9375 38.515625 -15.90625 L 49.65625 -10.34375 C 45.007812 -2.582031 37.296875 1.296875 26.515625 1.296875 C 19.796875 1.296875 14.03125 -1.003906 9.21875 -5.609375 C 4.40625 -10.210938 2 -15.757812 2 -22.25 C 2 -28.75 4.40625 -34.316406 9.21875 -38.953125 C 14.03125 -43.585938 19.796875 -45.90625 26.515625 -45.90625 C 33.585938 -45.90625 39.34375 -43.863281 43.78125 -39.78125 C 48.21875 -35.695312 50.4375 -29.859375 50.4375 -22.265625 C 50.4375 -21.210938 50.40625 -20.515625 50.34375 -20.171875 Z M 18.4375 -28.6875 L 35.390625 -28.6875 C 35.046875 -31.007812 34.132812 -32.789062 32.65625 -34.03125 C 31.175781 -35.28125 29.273438 -35.90625 26.953125 -35.90625 C 24.398438 -35.90625 22.367188 -35.238281 20.859375 -33.90625 C 19.359375 -32.570312 18.550781 -30.832031 18.4375 -28.6875 Z M 18.4375 -28.6875 "/></g></g></g><g fill="#000000" fill-opacity="1"><g transform="translate(220.93488, 78.058335)"><g><path d="M 15.125 -18.609375 C 17.90625 -18.609375 20.265625 -17.632812 22.203125 -15.6875 C 24.148438 -13.75 25.125 -11.390625 25.125 -8.609375 C 25.125 -5.878906 24.148438 -3.546875 22.203125 -1.609375 C 20.265625 0.328125 17.90625 1.296875 15.125 1.296875 C 12.40625 1.296875 10.070312 0.328125 8.125 -1.609375 C 6.1875 -3.546875 5.21875 -5.878906 5.21875 -8.609375 C 5.21875 -11.390625 6.1875 -13.75 8.125 -15.6875 C 10.070312 -17.632812 12.40625 -18.609375 15.125 -18.609375 Z M 15.125 -18.609375 "/></g></g></g></g></g></svg>